<svg width="286" height="284" xmlns="http://www.w3.org/2000/svg" xmlns:xlink="http://www.w3.org/1999/xlink" xml:space="preserve" overflow="hidden"><defs><clipPath id="clip0"><rect x="490" y="117" width="286" height="284"/></clipPath><clipPath id="clip1"><rect x="490" y="117" width="286" height="284"/></clipPath><clipPath id="clip2"><rect x="491" y="118" width="285" height="283"/></clipPath><clipPath id="clip3"><rect x="491" y="191" width="285" height="210"/></clipPath></defs><g clip-path="url(#clip0)" transform="translate(-490 -117)"><g clip-path="url(#clip1)"><g clip-path="url(#clip2)"><g clip-path="url(#clip3)"><g><path d="M261.451 148.659 280.221 104.552 311.326 104.552C356.339 104.552 373.425 86.0808 385.232 58.3237 389.605 48.0518 396.928 30.8556 387.224 16.2298 377.52 1.60405 357.235 0 342.729 0L177.392 0 154.079 54.7968 183.968 54.7968 167.379 93.8719 137.391 93.8719 114.067 148.669Z" fill="#CFB991" fill-rule="nonzero" fill-opacity="1" transform="matrix(1 0 0 1.00114 380.628 191.804)"/><path d="M378.785 21.8291C373.535 13.8586 362.057 10.1524 342.709 10.1524L184.117 10.1524 169.442 44.6046 199.331 44.6046 174.025 104.034 144.076 104.034 129.4 138.486 254.745 138.486 269.421 104.014 239.014 104.014 243.099 94.4099 311.306 94.4099C355.143 94.4099 366.88 75.4801 375.866 54.3485 380.708 42.9906 384.903 31.1146 378.766 21.8291M264.32 44.6046 314.414 44.6046C321.319 44.6046 320.332 48.0618 319.396 50.2138 316.835 56.1916 310.678 59.9477 303.355 59.9477L257.784 59.9477Z" fill="#9D9795" fill-rule="nonzero" fill-opacity="1" transform="matrix(1 0 0 1.00114 380.628 191.804)"/><path d="M342.729 15.4427 187.594 15.4427 177.432 39.3541 207.321 39.3541 177.512 109.345 147.573 109.345 137.391 133.256 251.248 133.256 261.431 109.345 231.033 109.345 239.631 89.1494 311.365 89.1494C352.473 89.1494 362.805 71.734 371.074 52.2861 379.343 32.8382 383.847 15.4228 342.749 15.4228M303.425 65.2381 249.804 65.2381 260.833 39.3341 314.414 39.3341C323.899 39.3341 327.725 44.216 324.278 52.2861 320.83 60.3562 312.87 65.2381 303.355 65.2381" fill="#000000" fill-rule="nonzero" fill-opacity="1" transform="matrix(1 0 0 1.00114 380.628 191.804)"/><path d="M9.60439 198.115 0.239113 195.385 0.239113 188.621 36.8633 188.621C60.7149 188.621 69.5122 196.242 69.5122 214.246 69.5122 231.093 59.8979 239.821 41.0478 239.821L26.2128 239.821 26.2128 266.801 35.7076 269.521 35.7076 275.807 0 275.807 0 269.521 9.60439 266.801ZM26.2128 197.816 26.2128 231.492 43.6581 230.206C47.992 228.214 52.4555 225.593 52.4555 214.724 52.4555 206.504 52.0769 197.787 36.126 197.787Z" fill="#FFFFFF" fill-rule="nonzero" fill-opacity="1" transform="matrix(1 0 0 1.00114 380.628 191.804)"/><path d="M205.518 238.685 193.672 238.685 193.672 266.801 203.167 269.521 203.167 275.807 167.459 275.807 167.459 269.521 177.073 266.801 177.073 198.115 167.579 195.385 167.579 188.621 205.797 188.621C228.453 188.621 236.682 196.661 236.682 212.113 236.682 224.069 232.03 230.266 221.26 234.53L237.4 266.083 247.821 269.521 247.821 275.807 223.551 275.807ZM193.672 197.836 193.672 231.143 211.326 229.957C216.936 227.178 219.636 222.734 219.636 213.588 219.636 203.974 216.527 197.926 206.564 197.926Z" fill="#FFFFFF" fill-rule="nonzero" fill-opacity="1" transform="matrix(1 0 0 1.00114 380.628 191.804)"/><path d="M254.965 269.521 264.449 266.92 264.449 198.115 255.084 195.385 255.084 188.621 297.218 188.621C321.069 188.621 334.978 202.997 334.978 231.262 334.978 263.254 320.551 275.807 295.405 275.807L254.965 275.807ZM281.177 197.876 281.177 266.801 293.661 266.801C302.229 266.801 317.005 265.406 317.005 233.923 317.005 209.125 312.551 197.856 293.661 197.856Z" fill="#FFFFFF" fill-rule="nonzero" fill-opacity="1" transform="matrix(1 0 0 1.00114 380.628 191.804)"/><path d="M36.8633 321.239C36.8633 331.84 30.7659 335.755 20.7232 335.755 10.6804 335.755 4.55312 329.777 4.55312 321.239L4.55312 299.988 0 298.563 0 294.578 18.5811 294.578 18.5811 298.563 14.0878 299.988 14.0878 321.239C14.0878 326.719 16.19 329.697 22.1678 329.697 25.087 329.697 30.0386 328.791 30.0386 320.96L30.0386 300.037 25.4955 298.613 25.4955 294.628 41.4364 294.628 41.4364 298.613 36.8633 299.988Z" fill="#FFFFFF" fill-rule="nonzero" fill-opacity="1" transform="matrix(1 0 0 1.00114 380.628 191.804)"/><path d="M68.9444 310.299 68.9444 329.777 73.4377 331.142 73.4377 335.127 57.7857 335.127 57.7857 331.142 62.3588 329.777 62.3588 302.13 60.3662 299.669 57.6462 298.822 57.6462 294.558 67.958 294.558 87.7446 319.465 87.7446 299.988 83.1915 298.623 83.1915 294.558 98.8734 294.558 98.8734 298.623 94.3203 299.988 94.3203 335.187 89.0099 335.187Z" fill="#FFFFFF" fill-rule="nonzero" fill-opacity="1" transform="matrix(1 0 0 1.00114 380.628 191.804)"/><path d="M132.708 329.777 137.261 331.142 137.261 335.127 118.62 335.127 118.62 331.142 123.173 329.777 123.173 299.888 118.62 298.513 118.62 294.528 137.261 294.528 137.261 298.513 132.708 299.888Z" fill="#FFFFFF" fill-rule="nonzero" fill-opacity="1" transform="matrix(1 0 0 1.00114 380.628 191.804)"/><path d="M383.717 329.777 388.26 331.142 388.26 335.127 369.629 335.127 369.629 331.142 374.173 329.777 374.173 299.888 369.629 298.563 369.629 294.578 388.26 294.578 388.26 298.563 383.717 299.938Z" fill="#FFFFFF" fill-rule="nonzero" fill-opacity="1" transform="matrix(1 0 0 1.00114 380.628 191.804)"/><path d="M179.913 335.127 171.135 335.127 158.253 299.988 153.71 298.563 153.71 294.578 173.357 294.578 173.357 298.563 168.744 299.988 177.303 324.985 186.02 299.988 181.467 298.563 181.467 294.578 197.408 294.578 197.408 298.563 192.855 299.988Z" fill="#FFFFFF" fill-rule="nonzero" fill-opacity="1" transform="matrix(1 0 0 1.00114 380.628 191.804)"/><path d="M216.816 299.988 212.263 298.623 212.263 294.558 244.145 294.558 244.473 307.091 239.382 307.091 236.912 299.938 226.351 299.938 226.351 311.336 236.882 311.336 236.882 317.094 226.351 317.094 226.351 329.917 237.121 329.917 240.349 322.813 245.33 322.813 244.613 335.127 212.263 335.127 212.263 331.142 216.816 330.006Z" fill="#FFFFFF" fill-rule="nonzero" fill-opacity="1" transform="matrix(1 0 0 1.00114 380.628 191.804)"/><path d="M283.439 318.569 279.962 318.569 279.962 329.777 284.515 331.142 284.515 335.127 265.894 335.127 265.894 331.142 270.447 329.777 270.447 299.988 265.894 298.623 265.894 294.558 284.425 294.558C295.773 294.558 299.28 298.951 299.28 305.796 299.28 310.299 298.284 314.384 292.715 316.417L299.22 329.648 304.919 331.401 304.919 335.127 291.22 335.127ZM279.962 299.988 279.962 314.185 286.378 313.637C288.51 311.925 289.692 309.294 289.556 306.563 289.556 302.508 288.49 299.988 284.316 299.988Z" fill="#FFFFFF" fill-rule="nonzero" fill-opacity="1" transform="matrix(1 0 0 1.00114 380.628 191.804)"/><path d="M321.438 322.524 327.077 322.524 328.283 328.223C330.866 329.777 333.826 330.591 336.841 330.574 337.28 330.582 337.719 330.566 338.156 330.524 339.722 329.388 340.657 327.577 340.677 325.643 340.677 316.158 321.269 320.382 321.269 306.513 321.269 300.157 327.087 294.07 336.731 294.07 340.558 294.171 344.312 295.138 347.711 296.899L347.711 307.589 342.43 307.589 340.507 300.795C338.413 299.961 336.185 299.516 333.932 299.48 333.565 299.47 333.199 299.49 332.836 299.539 331.176 300.553 330.161 302.356 330.156 304.302 330.156 312.422 349.394 309.512 349.394 323.112 349.394 330.455 342.759 335.715 333.822 335.715 329.444 335.693 325.164 334.417 321.488 332.039Z" fill="#FFFFFF" fill-rule="nonzero" fill-opacity="1" transform="matrix(1 0 0 1.00114 380.628 191.804)"/><path d="M420.441 300.047 415.18 300.047 412.759 307.281 407.668 307.281 407.668 294.558 443.027 294.558 443.027 307.281 438.046 307.281 435.714 300.047 430.015 300.047 430.015 329.777 434.569 331.142 434.569 335.127 415.908 335.127 415.908 331.142 420.441 329.777Z" fill="#FFFFFF" fill-rule="nonzero" fill-opacity="1" transform="matrix(1 0 0 1.00114 380.628 191.804)"/><path d="M474.849 319.505 464.209 299.988 459.666 298.563 459.666 294.578 479.293 294.578 479.293 298.563 474.68 299.988 481.375 313.199 488.11 299.988 483.567 298.563 483.567 294.578 499.568 294.578 499.568 298.563 495.024 299.988 484.334 319.396 484.334 329.777 488.887 331.142 488.887 335.127 470.256 335.127 470.256 331.142 474.859 329.777Z" fill="#FFFFFF" fill-rule="nonzero" fill-opacity="1" transform="matrix(1 0 0 1.00114 380.628 191.804)"/><path d="M492.006 250.541 485.839 266.801 458.53 266.801 458.53 235.427 473.992 235.427 475.995 244.214 482.86 244.214 482.86 217.792 475.995 217.792 473.992 226.261 458.53 226.261 458.53 197.876 484.653 197.876 489.634 214.724 499.03 214.724 498.442 188.621 432.437 188.621 432.437 195.385 441.802 198.115 441.802 266.91 432.317 269.521 432.317 275.807 499.737 275.807 501.281 250.541 492.006 250.541Z" fill="#FFFFFF" fill-rule="nonzero" fill-opacity="1" transform="matrix(1 0 0 1.00114 380.628 191.804)"/><path d="M150.612 245.828C150.612 267.946 140.051 277.112 118.401 277.112 98.4748 277.112 84.0683 269.142 84.0683 248.14L84.0683 198.115 74.5735 195.385 74.5735 188.621 110.162 188.621 110.162 195.385 100.627 198.115 100.627 248.14C100.627 260.713 106.445 266.233 120.324 266.233 129.898 266.233 138.706 260.624 138.706 246.984L138.706 198.115 129.34 195.385 129.34 188.621 160.106 188.621 160.106 195.385 150.612 198.115Z" fill="#FFFFFF" fill-rule="nonzero" fill-opacity="1" transform="matrix(1 0 0 1.00114 380.628 191.804)"/><path d="M415.459 245.828C415.459 267.946 404.899 277.112 383.249 277.112 363.323 277.112 348.906 269.142 348.906 248.14L348.906 198.115 339.421 195.385 339.421 188.621 375.009 188.621 375.009 195.385 365.515 198.115 365.515 248.14C365.515 260.713 371.323 266.233 385.212 266.233 394.786 266.233 403.593 260.624 403.593 246.984L403.593 198.115 394.218 195.385 394.218 188.621 424.944 188.621 424.944 195.385 415.459 198.115Z" fill="#FFFFFF" fill-rule="nonzero" fill-opacity="1" transform="matrix(1 0 0 1.00114 380.628 191.804)"/><path d="M510.627 335.018C505.823 335.018 501.929 331.124 501.929 326.32 501.929 321.516 505.823 317.622 510.627 317.622 515.43 317.622 519.324 321.516 519.324 326.32 519.319 331.121 515.428 335.012 510.627 335.018ZM510.627 319.426C506.819 319.426 503.732 322.512 503.732 326.32 503.732 330.128 506.819 333.214 510.627 333.214 514.434 333.214 517.521 330.128 517.521 326.32 517.521 322.512 514.434 319.426 510.627 319.426Z" fill="#FFFFFF" fill-rule="nonzero" fill-opacity="1" transform="matrix(1 0 0 1.00114 380.628 191.804)"/><path d="M509.521 327.117 509.521 330.345 507.817 330.345 507.817 322.275 511.364 322.275C513.117 322.275 514.064 323.271 514.064 324.487 514.122 325.308 513.654 326.075 512.898 326.4 513.297 326.549 513.894 326.958 513.894 328.392L513.894 328.791C513.868 329.305 513.908 329.821 514.014 330.325L512.35 330.325C512.197 329.734 512.14 329.121 512.181 328.512L512.181 328.392C512.181 327.516 511.962 327.097 510.656 327.097ZM509.521 325.722 510.985 325.722C511.982 325.722 512.31 325.354 512.31 324.726 512.31 324.098 511.882 323.73 511.025 323.73L509.521 323.73Z" fill="#FFFFFF" fill-rule="nonzero" fill-opacity="1" transform="matrix(1 0 0 1.00114 380.628 191.804)"/></g></g></g></g></g></svg>